<?xml version="1.0" encoding="UTF-8"?>
<svg version="1.1" xmlns="http://www.w3.org/2000/svg" width="512" height="512">
<path d="M0 0 C10.2331902 8.50194663 19.43064313 18.267321 28.83276367 27.65576172 C30.73400537 29.55072986 32.63542725 31.44551582 34.53703308 33.34011841 C40.2152009 38.99866226 45.88864827 44.66192728 51.56147119 50.32582873 C53.70245664 52.46329746 55.84375609 54.60045147 57.98507163 56.7375895 C67.43961997 66.17369534 76.8928231 75.61114642 86.34200573 85.05262566 C88.64653264 87.35524311 90.95106503 89.65785508 93.25561523 91.96044922 C93.82830331 92.53265356 94.40099139 93.10485789 94.99103365 93.69440176 C104.27768454 102.97274405 113.57282996 112.24252757 122.87153467 121.50878797 C132.44043096 131.04457103 142.0017404 140.58790827 151.55569059 150.13866627 C156.91132812 155.49214416 162.27017385 160.84231974 167.63753319 166.1840477 C172.20510165 170.72985193 176.76571175 175.28249746 181.31756183 179.84404312 C183.63647482 182.16748239 185.95949588 184.48652339 188.28931427 186.79903412 C190.8224541 189.31440976 193.34282201 191.84195298 195.86051941 194.37277222 C196.58815229 195.08943585 197.31578517 195.80609949 198.06546754 196.5444802 C211.5538071 210.20214483 218.42735996 227.5898887 218.36865234 246.69018555 C217.51190869 276.51949211 196.98383156 294.16221339 177.33251953 313.86035156 C175.46021576 315.74057179 173.58808814 317.62096617 171.71612549 319.50152588 C166.13564683 325.10630386 160.55041972 330.70633749 154.96425945 336.30545199 C153.38340388 337.89003223 151.80267218 339.47473593 150.22198248 341.05948162 C140.37365856 350.93302508 130.52373368 360.80496848 120.66903877 370.67215347 C118.39701513 372.94710594 116.12500799 375.2220749 113.85302734 377.49707031 C113.28845986 378.06238385 112.72389238 378.62769738 112.14221679 379.21014163 C102.98681697 388.37820906 93.84176113 397.55652378 84.70085742 406.73904207 C75.28665532 416.19574721 65.86297308 425.64292268 56.43010414 435.08100867 C51.1456832 440.36883121 45.86544223 445.66068168 40.59589005 450.9633255 C36.11208399 455.47524674 31.61972894 459.97843558 27.11627282 464.47074726 C24.82368005 466.75818534 22.53660764 469.05068343 20.2577095 471.35177612 C8.04120534 483.68070626 -2.98712105 493.98845426 -20 499 C-21.01513672 499.33644531 -21.01513672 499.33644531 -22.05078125 499.6796875 C-38.91682691 504.46112957 -57.63050395 500.4495875 -72.64453125 492.26953125 C-85.08861064 484.2457443 -95.24286188 473.05434872 -105.63916016 462.65136719 C-107.50753496 460.78898454 -109.37628558 458.92698569 -111.24546814 457.06541443 C-115.77463242 452.55276439 -120.29832196 448.03466571 -124.81979586 443.51431146 C-128.49843166 439.83663033 -132.17865135 436.1605416 -135.85996628 432.4855423 C-146.32342411 422.03966751 -156.78271019 411.58964138 -167.23662825 401.13421938 C-167.79856046 400.57220726 -168.36049267 400.01019514 -168.93945312 399.43115234 C-169.50207924 398.86844447 -170.06470535 398.3057366 -170.64438073 397.72597697 C-179.76342711 388.60611762 -188.89241297 379.49628031 -198.02594836 370.39093384 C-207.42999038 361.01568453 -216.82648806 351.63293106 -226.2152828 342.24241185 C-231.47622492 336.98080824 -236.74014791 331.72227217 -242.0122261 326.47182465 C-246.49967525 322.0026712 -250.98001089 317.52653027 -255.4515629 313.04146901 C-257.7282274 310.7583181 -260.00893942 308.47950351 -262.29648781 306.2072506 C-279.17551423 289.43374401 -293.89395062 272.88103218 -294.43139648 247.84301758 C-294.49562972 217.26542888 -278.3694581 200.27706048 -257.79270935 179.61274719 C-256.06979793 177.88540243 -254.34681902 176.15812499 -252.6237793 174.4309082 C-250.78265476 172.58186679 -248.94170709 170.73264924 -247.10092163 168.88327026 C-241.61387414 163.3719265 -236.12208131 157.86532393 -230.62935349 152.35964206 C-229.0746228 150.80118627 -227.52001576 149.24260726 -225.96545053 147.68398643 C-216.27772711 137.97104148 -206.58840061 128.2596987 -196.89430523 118.55311298 C-194.65941605 116.31529503 -192.42454341 114.07746055 -190.18969727 111.83959961 C-189.63436394 111.28352023 -189.07903061 110.72744085 -188.506869 110.15451058 C-179.50410575 101.13908361 -170.51168671 92.11341085 -161.52342644 83.08352695 C-152.26404109 73.7816188 -142.99515742 64.48925934 -133.71709377 55.20598096 C-128.52038876 50.00587642 -123.32785358 44.80175674 -118.14603233 39.58681679 C-113.27281456 34.68249918 -108.38681329 29.79123799 -103.49215317 24.90832138 C-101.70530766 23.12169577 -99.92268318 21.33083627 -98.14478874 19.53530312 C-71.51947428 -7.33958473 -35.18361439 -24.24873067 0 0 Z " fill="#FEDD16" transform="translate(294,11)"/>
<path d="M0 0 C10.2331902 8.50194663 19.43064313 18.267321 28.83276367 27.65576172 C30.73400537 29.55072986 32.63542725 31.44551582 34.53703308 33.34011841 C40.2152009 38.99866226 45.88864827 44.66192728 51.56147119 50.32582873 C53.70245664 52.46329746 55.84375609 54.60045147 57.98507163 56.7375895 C67.43961997 66.17369534 76.8928231 75.61114642 86.34200573 85.05262566 C88.64653264 87.35524311 90.95106503 89.65785508 93.25561523 91.96044922 C93.82830331 92.53265356 94.40099139 93.10485789 94.99103365 93.69440176 C104.27768454 102.97274405 113.57282996 112.24252757 122.87153467 121.50878797 C132.44043096 131.04457103 142.0017404 140.58790827 151.55569059 150.13866627 C156.91132812 155.49214416 162.27017385 160.84231974 167.63753319 166.1840477 C172.20510165 170.72985193 176.76571175 175.28249746 181.31756183 179.84404312 C183.63647482 182.16748239 185.95949588 184.48652339 188.28931427 186.79903412 C190.8224541 189.31440976 193.34282201 191.84195298 195.86051941 194.37277222 C196.58815229 195.08943585 197.31578517 195.80609949 198.06546754 196.5444802 C211.5538071 210.20214483 218.42735996 227.5898887 218.36865234 246.69018555 C217.51190869 276.51949211 196.98383156 294.16221339 177.33251953 313.86035156 C175.46021576 315.74057179 173.58808814 317.62096617 171.71612549 319.50152588 C166.13564683 325.10630386 160.55041972 330.70633749 154.96425945 336.30545199 C153.38340388 337.89003223 151.80267218 339.47473593 150.22198248 341.05948162 C140.37365856 350.93302508 130.52373368 360.80496848 120.66903877 370.67215347 C118.39701513 372.94710594 116.12500799 375.2220749 113.85302734 377.49707031 C113.28845986 378.06238385 112.72389238 378.62769738 112.14221679 379.21014163 C102.98681697 388.37820906 93.84176113 397.55652378 84.70085742 406.73904207 C75.28665532 416.19574721 65.86297308 425.64292268 56.43010414 435.08100867 C51.1456832 440.36883121 45.86544223 445.66068168 40.59589005 450.9633255 C36.11208399 455.47524674 31.61972894 459.97843558 27.11627282 464.47074726 C24.82368005 466.75818534 22.53660764 469.05068343 20.2577095 471.35177612 C8.04120534 483.68070626 -2.98712105 493.98845426 -20 499 C-21.01513672 499.33644531 -21.01513672 499.33644531 -22.05078125 499.6796875 C-38.91682691 504.46112957 -57.63050395 500.4495875 -72.64453125 492.26953125 C-85.08861064 484.2457443 -95.24286188 473.05434872 -105.63916016 462.65136719 C-107.50753496 460.78898454 -109.37628558 458.92698569 -111.24546814 457.06541443 C-115.77463242 452.55276439 -120.29832196 448.03466571 -124.81979586 443.51431146 C-128.49843166 439.83663033 -132.17865135 436.1605416 -135.85996628 432.4855423 C-146.32342411 422.03966751 -156.78271019 411.58964138 -167.23662825 401.13421938 C-167.79856046 400.57220726 -168.36049267 400.01019514 -168.93945312 399.43115234 C-169.50207924 398.86844447 -170.06470535 398.3057366 -170.64438073 397.72597697 C-179.76342711 388.60611762 -188.89241297 379.49628031 -198.02594836 370.39093384 C-207.42999038 361.01568453 -216.82648806 351.63293106 -226.2152828 342.24241185 C-231.47622492 336.98080824 -236.74014791 331.72227217 -242.0122261 326.47182465 C-246.49967525 322.0026712 -250.98001089 317.52653027 -255.4515629 313.04146901 C-257.7282274 310.7583181 -260.00893942 308.47950351 -262.29648781 306.2072506 C-279.17551423 289.43374401 -293.89395062 272.88103218 -294.43139648 247.84301758 C-294.49562972 217.26542888 -278.3694581 200.27706048 -257.79270935 179.61274719 C-256.06979793 177.88540243 -254.34681902 176.15812499 -252.6237793 174.4309082 C-250.78265476 172.58186679 -248.94170709 170.73264924 -247.10092163 168.88327026 C-241.61387414 163.3719265 -236.12208131 157.86532393 -230.62935349 152.35964206 C-229.0746228 150.80118627 -227.52001576 149.24260726 -225.96545053 147.68398643 C-216.27772711 137.97104148 -206.58840061 128.2596987 -196.89430523 118.55311298 C-194.65941605 116.31529503 -192.42454341 114.07746055 -190.18969727 111.83959961 C-189.63436394 111.28352023 -189.07903061 110.72744085 -188.506869 110.15451058 C-179.50410575 101.13908361 -170.51168671 92.11341085 -161.52342644 83.08352695 C-152.26404109 73.7816188 -142.99515742 64.48925934 -133.71709377 55.20598096 C-128.52038876 50.00587642 -123.32785358 44.80175674 -118.14603233 39.58681679 C-113.27281456 34.68249918 -108.38681329 29.79123799 -103.49215317 24.90832138 C-101.70530766 23.12169577 -99.92268318 21.33083627 -98.14478874 19.53530312 C-71.51947428 -7.33958473 -35.18361439 -24.24873067 0 0 Z M-73.07196045 42.6842804 C-73.83157963 43.43851404 -74.59119881 44.19274768 -75.37383676 44.96983689 C-77.8979697 47.47974948 -80.41134482 50.00015475 -82.92480469 52.52075195 C-84.74004459 54.33028531 -86.555913 56.13918836 -88.37236023 57.94750977 C-92.78032462 62.33941898 -97.181205 66.7383155 -101.57852092 71.14088336 C-105.15415831 74.72057251 -108.73254382 78.2974925 -112.31287384 81.87248802 C-112.82365265 82.38251841 -113.33443145 82.89254879 -113.8606884 83.41803464 C-114.89852756 84.45434223 -115.93637011 85.49064644 -116.97421601 86.52694728 C-126.69086252 96.22988815 -136.39793342 105.94236425 -146.10198382 115.6579003 C-154.97037105 124.53622327 -163.85015073 133.40304958 -172.73545608 142.26443837 C-181.87278727 151.37736076 -191.00268282 160.49767029 -200.12449384 169.62612885 C-205.24028948 174.74541206 -210.35888738 179.86181284 -215.48519135 184.97057533 C-220.30447149 189.77356774 -225.11310489 194.5869762 -229.91483498 199.40752411 C-231.67661468 201.17298922 -233.4417977 202.93506578 -235.21064568 204.69344902 C-237.62847478 207.09806491 -240.03358973 209.51473614 -242.43597412 211.93476868 C-243.13509627 212.62428582 -243.83421842 213.31380296 -244.55452609 214.02421457 C-249.05307758 218.59081142 -252.17693166 223.25368832 -255 229 C-255.32919237 229.65508193 -255.65838474 230.31016386 -255.99755263 230.98509675 C-260.33093031 240.0374068 -258.57930175 250.85973633 -255.4609375 259.98828125 C-251.68690222 267.7684449 -246.46247056 273.97823396 -240.3604126 280.02726746 C-239.23624581 281.15951255 -239.23624581 281.15951255 -238.08936858 282.31463128 C-235.59560866 284.82261043 -233.0913582 287.31983213 -230.58691406 289.81713867 C-228.78885536 291.62090402 -226.99142694 293.42529785 -225.19458008 295.23027039 C-220.83040924 299.61049639 -216.45925135 303.98363802 -212.0844219 308.35321566 C-208.5266709 311.90691439 -204.97168993 315.463362 -201.41863251 319.02175331 C-200.65818306 319.78332539 -200.65818306 319.78332539 -199.88237099 320.56028277 C-198.85226614 321.59191921 -197.82216466 322.62355902 -196.79206654 323.65520219 C-187.14679958 333.31417517 -177.49199714 342.96357208 -167.83413479 352.60994873 C-159.01145429 361.42269663 -150.20026493 370.24683075 -141.39451984 379.07649788 C-132.33696837 388.1584685 -123.27201819 397.23299161 -114.19892669 406.2994383 C-109.11147053 411.38340879 -104.02688878 416.47017303 -98.9499588 421.56465721 C-94.1756982 426.35522148 -89.39099817 431.13511438 -84.59918213 435.90812874 C-82.84542688 437.65820242 -81.09505068 439.41167004 -79.34838104 441.16881561 C-76.95726519 443.57317127 -74.55405614 445.96477401 -72.14752197 448.35368347 C-71.46480862 449.04600183 -70.78209527 449.73832019 -70.07869363 450.4516179 C-61.46270511 458.93893083 -51.1913468 464.99235031 -38.875 465.3125 C-34.38506943 465.13820145 -30.23378605 464.52795475 -26 463 C-25.21573324 462.72847422 -24.43146648 462.45694843 -23.62343407 462.1771946 C-12.11971403 457.30337656 -4.12793347 447.96886975 4.52490234 439.25146484 C6.36789313 437.4166132 8.21215593 435.58303847 10.05758667 433.75064087 C14.53045874 429.30432741 18.98710573 424.8420933 23.43798058 420.37377112 C27.05838103 416.73977231 30.68465377 413.11173059 34.31511307 409.48778152 C34.83352276 408.97029123 35.35193246 408.45280093 35.88605154 407.9196291 C36.93950143 406.86809774 37.99296468 405.81657977 39.04644115 404.76507504 C48.90411743 394.92447254 58.7433825 385.06562688 68.57636042 375.20035358 C76.99805434 366.75185632 85.43535461 358.3192132 93.88427734 349.89794922 C103.71634305 340.09805554 113.53852113 330.28842121 123.34531748 320.4632355 C124.39279299 319.41384887 125.44028095 318.36447468 126.48778152 317.31511307 C127.00305013 316.79891881 127.51831874 316.28272455 128.04920154 315.75088804 C131.6658143 312.12911358 135.28930328 308.51430925 138.91556931 304.90220261 C143.80382962 300.03261217 148.67578992 295.14719523 153.53740311 290.25100327 C155.31961224 288.46088851 157.10689521 286.67580808 158.89968872 284.89629364 C171.90174935 271.98165898 181.40581674 261.7920087 181.51464844 242.60498047 C181.24718951 231.29741117 176.46567535 223.26776564 168.79641724 215.15805054 C168.28020345 214.60596684 167.76398966 214.05388314 167.23213303 213.48506963 C159.98182635 205.78521322 152.48258083 198.32630768 145.00732422 190.84619141 C143.32703156 189.16125933 141.64693251 187.47613415 139.9670105 185.79083252 C135.44077005 181.25158559 130.91129889 176.71557673 126.38078451 172.18059587 C123.54526259 169.3421278 120.71030692 166.50309545 117.87555313 163.66386032 C110.00363871 155.77978168 102.13079826 147.89663036 94.25449944 140.01693153 C93.75300737 139.5152199 93.25151531 139.01350827 92.73482651 138.49659326 C92.23226725 137.99381572 91.72970799 137.49103818 91.21191967 136.97302496 C90.19384983 135.95451169 89.17578156 134.93599686 88.15771484 133.91748047 C87.65273823 133.41228242 87.14776161 132.90708437 86.62748267 132.38657729 C78.42996504 124.18510431 70.23923645 115.97688651 62.05137168 107.76577778 C53.61540261 99.30605615 45.17378074 90.85200953 36.72650921 82.40357339 C31.99538475 77.67153537 27.26683552 72.9369889 22.54421616 68.19646072 C18.10693739 63.74267805 13.66252207 59.29614187 9.21260452 54.8549881 C7.58548295 53.22863529 5.96090264 51.59973524 4.33912659 49.96805191 C-13.92150119 31.27644729 -13.92150119 31.27644729 -38.5625 24.5 C-52.87036461 25.01282669 -63.33756506 32.86512085 -73.07196045 42.6842804 Z " fill="#FDDC16" transform="translate(294,11)"/>
<path d="M0 0 C1.12051758 0.01135986 1.12051758 0.01135986 2.26367188 0.02294922 C17.62496636 0.47455809 28.16337815 8.14732971 38.41796875 18.93359375 C40.00140291 20.55978072 41.58540365 22.18541617 43.16992188 23.81054688 C45.63250988 26.3541102 48.08914093 28.90286109 50.53588867 31.46166992 C52.91872902 33.94690628 55.32269235 36.41004343 57.73046875 38.87109375 C58.4587236 39.64488876 59.18697845 40.41868378 59.93730164 41.21592712 C63.75731001 45.31993392 63.75731001 45.31993392 68.95507812 46.60229492 C72.27569287 45.27765839 75.51534622 43.91906046 78.73828125 42.3671875 C79.39508881 42.0540712 80.05189636 41.7409549 80.72860718 41.41835022 C82.14525136 40.74227869 83.56032722 40.06291291 84.97396851 39.38058472 C88.76941379 37.54918674 92.57671835 35.74272846 96.3828125 33.93359375 C97.16583237 33.56067703 97.94885223 33.18776031 98.75559998 32.80354309 C108.29564576 28.26937376 117.92012056 23.92338186 127.54614258 19.57568359 C128.1849939 19.28678757 128.82384521 18.99789154 129.48205566 18.70024109 C130.74032389 18.13184102 131.99926497 17.56492784 133.25891113 16.99958801 C136.49866967 15.53987485 139.71110508 14.03960275 142.90112305 12.47387695 C143.56557938 12.15161636 144.23003571 11.82935577 144.91462708 11.49732971 C146.74927598 10.60427121 148.57774918 9.69855726 150.40576172 8.79199219 C156.46524278 6.42619339 163.52309762 5.75452458 169.70606995 8.14561462 C174.98804555 10.65668653 178.7391849 13.76495945 182.78125 17.953125 C183.39141968 18.56895447 184.00158936 19.18478394 184.63024902 19.8192749 C186.55486157 21.76607122 188.46500129 23.72637506 190.375 25.6875 C191.68656376 27.01915194 192.9990556 28.34989046 194.3125 29.6796875 C197.5108207 32.92183635 200.6962485 36.17616703 203.875 39.4375 C200.92734504 42.51900701 198.19381292 45.09233041 194.48828125 47.20703125 C193.6463623 47.69461914 192.80444336 48.18220703 191.93701172 48.68457031 C191.02967285 49.20116211 190.12233398 49.71775391 189.1875 50.25 C187.19536129 51.40539384 185.20452851 52.56304161 183.21484375 53.72265625 C182.17440918 54.32867676 181.13397461 54.93469727 180.06201172 55.55908203 C174.74478565 58.69304383 169.49821987 61.93972447 164.25 65.1875 C155.36478029 70.67704735 146.46523564 76.14114713 137.53863525 81.56311035 C136.31962091 82.30354631 135.10082451 83.0443412 133.88226318 83.78552246 C127.92073003 87.41100569 121.95926045 91.02115694 115.875 94.4375 C117.45899589 98.33145116 120.11696943 100.94902235 123.05908203 103.84863281 C123.58606689 104.37590973 124.11305176 104.90318665 124.65600586 105.44644165 C126.39357476 107.18262072 128.13811314 108.911614 129.8828125 110.640625 C131.09108322 111.84516437 132.29891222 113.05014697 133.50631714 114.2555542 C136.68137077 117.42298106 139.86238522 120.58435513 143.04467773 123.74450684 C146.29252076 126.97187089 149.53469133 130.20492228 152.77734375 133.4375 C159.13768982 139.77641303 165.50434753 146.10894624 171.875 152.4375 C173.61418882 151.9731217 175.35265541 151.50603806 177.09082031 151.0378418 C178.54310028 150.64812447 178.54310028 150.64812447 180.02471924 150.25053406 C184.70237605 148.91624645 189.22192638 147.18256894 193.75390625 145.42382812 C198.26029434 143.75587929 201.9962186 142.91519737 206.875 143.4375 C208.8515625 144.51171875 208.8515625 144.51171875 210.5 146.125 C211.15226563 146.74890625 211.80453125 147.3728125 212.4765625 148.015625 C213.26804687 148.81484375 214.05953125 149.6140625 214.875 150.4375 C216.00709244 151.55801963 217.13996557 152.67775082 218.2734375 153.796875 C221.49495752 156.98996727 224.68959846 160.2083963 227.875 163.4375 C224.47763945 166.30260869 221.14428808 168.49630585 217.18359375 170.50390625 C216.08265381 171.06706543 214.98171387 171.63022461 213.84741211 172.21044922 C212.68089111 172.80100098 211.51437012 173.39155273 210.3125 174 C207.88342812 175.23962685 205.45687311 176.48410865 203.03125 177.73046875 C202.42615097 178.04107239 201.82105194 178.35167603 201.19761658 178.67169189 C194.64812369 182.0469096 188.20670232 185.61165879 181.79272461 189.23657227 C181.03483643 189.66123779 180.27694824 190.08590332 179.49609375 190.5234375 C178.8405249 190.8951709 178.18495605 191.2669043 177.50952148 191.64990234 C175.875 192.4375 175.875 192.4375 173.875 192.4375 C173.62516357 193.27144287 173.37532715 194.10538574 173.11791992 194.96459961 C171.72191778 198.86523416 169.9466151 202.36319663 167.98828125 206.00390625 C167.60818405 206.71925034 167.22808685 207.43459442 166.83647156 208.1716156 C165.6244616 210.45007287 164.40607679 212.72504936 163.1875 215 C162.3882546 216.50042884 161.58942293 218.00107815 160.79101562 219.50195312 C156.17999248 228.16197432 151.53454296 236.80350203 146.875 245.4375 C143.64915322 244.01911241 141.49694828 242.30574816 139.01953125 239.8125 C138.31505859 239.10609375 137.61058594 238.3996875 136.88476562 237.671875 C136.15966797 236.93453125 135.43457031 236.1971875 134.6875 235.4375 C133.95080078 234.70015625 133.21410156 233.9628125 132.45507812 233.203125 C125.98960218 226.68411706 125.98960218 226.68411706 125.5234375 221.61328125 C125.60550292 214.02222964 129.0825366 207.1789003 131.8515625 200.23632812 C132.2640625 199.16189453 132.6765625 198.08746094 133.1015625 196.98046875 C133.48908691 196.01133545 133.87661133 195.04220215 134.27587891 194.04370117 C135.02193155 190.79834176 134.61524065 190.22209209 132.875 187.4375 C131.19459223 185.56967461 129.50350385 183.79263818 127.72265625 182.02636719 C127.19888397 181.49909027 126.67511169 180.97181335 126.13546753 180.42855835 C124.4077998 178.69210807 122.6729431 176.96305188 120.9375 175.234375 C119.73416341 174.02969117 118.53112385 172.82471058 117.32836914 171.6194458 C114.80971796 169.09784841 112.28749015 166.57989861 109.76269531 164.06445312 C106.52080665 160.83398316 103.28801113 157.59458548 100.05781555 154.35242844 C97.57708746 151.8644891 95.09163514 149.38131354 92.60470581 146.89957428 C91.41027843 145.70648417 90.21734349 144.51189807 89.02590942 143.31581879 C87.36450026 141.64935385 85.69685609 139.98939607 84.02734375 138.33105469 C83.28543289 137.58307114 83.28543289 137.58307114 82.52853394 136.81997681 C80.14910018 134.18439569 80.14910018 134.18439569 76.875 133.4375 C75.4191293 135.40596608 75.4191293 135.40596608 73.9609375 137.9921875 C73.37328613 138.98581299 72.78563477 139.97943848 72.18017578 141.00317383 C71.54321777 142.09525146 70.90625977 143.1873291 70.25 144.3125 C68.88156896 146.6271232 67.51181479 148.94092066 66.140625 151.25390625 C65.78779449 151.85069687 65.43496399 152.44748749 65.07144165 153.06236267 C61.45518726 159.17076156 57.73417556 165.21308285 54 171.25 C48.21277028 180.62354112 42.46453656 190.01951563 36.75 199.4375 C36.39601135 200.02069 36.04202271 200.60388 35.67730713 201.20474243 C31.38949841 208.27016381 27.11921297 215.34580232 22.875 222.4375 C17.00556535 217.58314191 11.56070776 212.34190773 6.16723633 206.9699707 C4.68686963 205.49937379 3.19615199 204.03980736 1.70507812 202.58007812 C-5.25262976 195.70115491 -10.99917492 189.60810157 -11.5 179.4375 C-11.1914073 167.26866138 -2.19630108 153.81869191 2.875 142.9375 C3.72223981 141.11485513 4.56924284 139.29210017 5.41601562 137.46923828 C7.511174 132.96020405 9.60879788 128.45232295 11.70751953 123.94494629 C14.04091776 118.93341 16.37285104 113.92119289 18.703125 108.90820312 C19.78527212 106.58082829 20.86853246 104.25397061 21.953125 101.92773438 C22.8770895 99.94195583 23.79684444 97.95420905 24.7109375 95.96386719 C25.43121271 94.40065245 26.1632988 92.84274825 26.9140625 91.29394531 C28.48100049 88.03224582 28.48100049 88.03224582 28.66925049 84.49172974 C27.65497525 81.86843344 26.28100691 80.51725138 24.26074219 78.56201172 C23.49614685 77.81378143 22.73155151 77.06555115 21.94378662 76.29464722 C21.11155579 75.49358551 20.27932495 74.6925238 19.421875 73.8671875 C17.67030599 72.14870952 15.91901274 70.42995044 14.16796875 68.7109375 C11.40311744 66.01416667 8.63438434 63.32158771 5.85986328 60.63476562 C3.18193322 58.03583762 0.52004726 55.42126454 -2.140625 52.8046875 C-3.37682587 51.62131302 -3.37682587 51.62131302 -4.63800049 50.41403198 C-12.80204873 42.3556655 -17.21365549 34.15834668 -17.359375 22.67382812 C-17.36453125 21.83271484 -17.3696875 20.99160156 -17.375 20.125 C-17.395625 19.29548828 -17.41625 18.46597656 -17.4375 17.61132812 C-17.47212211 12.12805071 -16.98591248 8.17964275 -14.125 3.4375 C-9.67073485 0.26237514 -5.3282325 -0.07580819 0 0 Z " fill="#010100" transform="translate(164.125,143.5625)"/>
<path d="M0 0 C9.85445921 8.10965179 18.68778897 17.51016725 27.71533203 26.5065918 C29.49674325 28.27844991 31.27832336 30.05013824 33.06005859 31.82167053 C38.37782288 37.11092902 43.69129418 42.40448236 49.00330192 47.69952151 C50.50656533 49.19797557 52.0099146 50.69634343 53.51328039 52.19469476 C62.87738462 61.52784105 72.23933214 70.86314739 81.59637642 80.203372 C83.75546454 82.35851168 85.91458 84.51362396 88.07373047 86.66870117 C88.61026886 87.2042312 89.14680725 87.73976123 89.69960438 88.29151944 C98.39435577 96.9692579 107.10109616 105.63486512 115.81271698 114.29566469 C124.78306718 123.21411803 133.74193847 132.14397719 142.68999755 141.08479625 C147.7037992 146.09395399 152.72244195 151.09803657 157.75415421 156.0892086 C162.48755101 160.78450999 167.20523608 165.49505502 171.91300964 170.21607018 C173.63628739 171.93929419 175.36465065 173.65745097 177.09861374 175.36992264 C190.38811751 188.50354805 203.21636798 202.19286002 203.46826172 221.95410156 C203.45811035 222.87674805 203.44795898 223.79939453 203.4375 224.75 C203.42614014 226.19971191 203.42614014 226.19971191 203.41455078 227.67871094 C202.8144396 253.8295411 183.85987342 269.29000921 166.62939453 286.54760742 C164.87235645 288.31092014 163.1155052 290.07441905 161.35882568 291.83808899 C156.11530126 297.10071881 150.86757634 302.35914243 145.61895496 307.61668751 C143.63765322 309.60150723 141.65666548 311.58664017 139.67569331 313.57178881 C130.92719905 322.33872374 122.17736021 331.10431414 113.42349434 339.86588573 C111.28931863 342.00197085 109.15514844 344.13806147 107.02099609 346.27416992 C106.49066036 346.80498939 105.96032463 347.33580886 105.41391812 347.88271377 C96.81455987 356.49038058 88.22376341 365.10653986 79.63648774 373.72625896 C70.79679661 382.59907199 61.94954428 391.4642886 53.09487236 400.32215196 C48.13263188 405.28655117 43.17369123 410.25414864 38.22320938 415.23027611 C33.56854571 419.90900009 28.90364682 424.57733939 24.23180389 429.23892021 C22.52359627 430.94663331 20.81877923 432.6577461 19.11771011 434.37257004 C7.65852105 445.91918472 -2.18028407 455.02961628 -18 460 C-18.99 460.33 -19.98 460.66 -21 461 C-24.68288335 461.25877813 -28.37149233 461.23146387 -32.0625 461.25 C-33.56200195 461.2809375 -33.56200195 461.2809375 -35.09179688 461.3125 C-54.69247567 461.41438787 -66.65431099 450.27809501 -79.9002527 437.2314142 C-83.88440061 433.28748308 -87.85398459 429.32902472 -91.82299805 425.36987305 C-93.61587534 423.58490939 -95.40893028 421.80012415 -97.20214844 420.01550293 C-102.55389374 414.68756451 -107.90138842 409.35537645 -113.24771258 404.02199885 C-114.760328 402.51310608 -116.27306798 401.00433831 -117.78585076 399.49561334 C-127.20633493 390.10035206 -136.62522 380.70349078 -146.03934002 371.30185223 C-148.21150967 369.13261153 -150.38369573 366.96338727 -152.5559082 364.79418945 C-153.36559518 363.98562156 -153.36559518 363.98562156 -154.19163946 363.16071896 C-162.94341808 354.42160452 -171.70543965 345.69283441 -180.47167518 336.96822431 C-189.49551346 327.98688112 -198.50982848 318.99606657 -207.51505309 309.99605972 C-212.56198406 304.95253179 -217.61294702 299.9131951 -222.67468834 294.88452721 C-227.43449929 290.15576988 -232.18128155 285.41430916 -236.91971588 280.66411591 C-238.65557801 278.92803351 -240.39568982 277.19618773 -242.1404438 275.46904182 C-257.36886501 260.38592724 -267.85520043 247.16233684 -268.3125 224.875 C-268.18436029 210.43792552 -262.69607426 197.70446717 -252.8527832 187.237854 C-252.07373989 186.40246798 -252.07373989 186.40246798 -251.27895832 185.55020547 C-243.97085815 177.76965161 -236.40023024 170.24395344 -228.85546875 162.69433594 C-227.15871691 160.99294475 -225.4621587 159.29136043 -223.76577759 157.58959961 C-219.19395151 153.00476426 -214.61891026 148.42314897 -210.04278946 143.84260082 C-207.1776886 140.97471717 -204.31331737 138.10610554 -201.44906616 135.23737335 C-193.49308886 127.26922988 -185.53618387 119.30201539 -177.57582092 111.33825302 C-177.06889676 110.83110929 -176.5619726 110.32396556 -176.0396871 109.80145384 C-175.27768974 109.03912907 -175.27768974 109.03912907 -174.5002985 108.2614038 C-173.47122609 107.23188795 -172.44215523 106.20237053 -171.41308594 105.17285156 C-170.90265271 104.66219691 -170.39221948 104.15154225 -169.86631858 103.62541321 C-161.58608598 95.34122796 -153.31263906 87.05030086 -145.04206645 78.75647256 C-136.51795665 70.20859043 -127.98817465 61.66640249 -119.45275211 53.12981629 C-114.67349826 48.34964982 -109.89664129 43.5671439 -105.12606812 38.77831268 C-100.64119355 34.27690372 -96.14914399 29.78277849 -91.65162277 25.29400635 C-90.00921651 23.65236728 -88.36933951 22.00819295 -86.73228836 20.36121368 C-62.53843448 -3.97066583 -33.25544473 -22.78562592 0 0 Z M-67.07196045 23.6842804 C-67.83157963 24.43851404 -68.59119881 25.19274768 -69.37383676 25.96983689 C-71.8979697 28.47974948 -74.41134482 31.00015475 -76.92480469 33.52075195 C-78.74004459 35.33028531 -80.555913 37.13918836 -82.37236023 38.94750977 C-86.78032462 43.33941898 -91.181205 47.7383155 -95.57852092 52.14088336 C-99.15415831 55.72057251 -102.73254382 59.2974925 -106.31287384 62.87248802 C-106.82365265 63.38251841 -107.33443145 63.89254879 -107.8606884 64.41803464 C-108.89852756 65.45434223 -109.93637011 66.49064644 -110.97421601 67.52694728 C-120.69086252 77.22988815 -130.39793342 86.94236425 -140.10198382 96.6579003 C-148.97037105 105.53622327 -157.85015073 114.40304958 -166.73545608 123.26443837 C-175.87278727 132.37736076 -185.00268282 141.49767029 -194.12449384 150.62612885 C-199.24028948 155.74541206 -204.35888738 160.86181284 -209.48519135 165.97057533 C-214.30447149 170.77356774 -219.11310489 175.5869762 -223.91483498 180.40752411 C-225.67661468 182.17298922 -227.4417977 183.93506578 -229.21064568 185.69344902 C-231.62847478 188.09806491 -234.03358973 190.51473614 -236.43597412 192.93476868 C-237.13509627 193.62428582 -237.83421842 194.31380296 -238.55452609 195.02421457 C-243.05307758 199.59081142 -246.17693166 204.25368832 -249 210 C-249.32919237 210.65508193 -249.65838474 211.31016386 -249.99755263 211.98509675 C-254.33093031 221.0374068 -252.57930175 231.85973633 -249.4609375 240.98828125 C-245.68690222 248.7684449 -240.46247056 254.97823396 -234.3604126 261.02726746 C-233.23624581 262.15951255 -233.23624581 262.15951255 -232.08936858 263.31463128 C-229.59560866 265.82261043 -227.0913582 268.31983213 -224.58691406 270.81713867 C-222.78885536 272.62090402 -220.99142694 274.42529785 -219.19458008 276.23027039 C-214.83040924 280.61049639 -210.45925135 284.98363802 -206.0844219 289.35321566 C-202.5266709 292.90691439 -198.97168993 296.463362 -195.41863251 300.02175331 C-194.65818306 300.78332539 -194.65818306 300.78332539 -193.88237099 301.56028277 C-192.85226614 302.59191921 -191.82216466 303.62355902 -190.79206654 304.65520219 C-181.14679958 314.31417517 -171.49199714 323.96357208 -161.83413479 333.60994873 C-153.01145429 342.42269663 -144.20026493 351.24683075 -135.39451984 360.07649788 C-126.33696837 369.1584685 -117.27201819 378.23299161 -108.19892669 387.2994383 C-103.11147053 392.38340879 -98.02688878 397.47017303 -92.9499588 402.56465721 C-88.1756982 407.35522148 -83.39099817 412.13511438 -78.59918213 416.90812874 C-76.84542688 418.65820242 -75.09505068 420.41167004 -73.34838104 422.16881561 C-70.95726519 424.57317127 -68.55405614 426.96477401 -66.14752197 429.35368347 C-65.46480862 430.04600183 -64.78209527 430.73832019 -64.07869363 431.4516179 C-55.46270511 439.93893083 -45.1913468 445.99235031 -32.875 446.3125 C-28.38506943 446.13820145 -24.23378605 445.52795475 -20 444 C-19.21573324 443.72847422 -18.43146648 443.45694843 -17.62343407 443.1771946 C-6.11971403 438.30337656 1.87206653 428.96886975 10.52490234 420.25146484 C12.36789313 418.4166132 14.21215593 416.58303847 16.05758667 414.75064087 C20.53045874 410.30432741 24.98710573 405.8420933 29.43798058 401.37377112 C33.05838103 397.73977231 36.68465377 394.11173059 40.31511307 390.48778152 C40.83352276 389.97029123 41.35193246 389.45280093 41.88605154 388.9196291 C42.93950143 387.86809774 43.99296468 386.81657977 45.04644115 385.76507504 C54.90411743 375.92447254 64.7433825 366.06562688 74.57636042 356.20035358 C82.99805434 347.75185632 91.43535461 339.3192132 99.88427734 330.89794922 C109.71634305 321.09805554 119.53852113 311.28842121 129.34531748 301.4632355 C130.39279299 300.41384887 131.44028095 299.36447468 132.48778152 298.31511307 C133.00305013 297.79891881 133.51831874 297.28272455 134.04920154 296.75088804 C137.6658143 293.12911358 141.28930328 289.51430925 144.91556931 285.90220261 C149.80382962 281.03261217 154.67578992 276.14719523 159.53740311 271.25100327 C161.31961224 269.46088851 163.10689521 267.67580808 164.89968872 265.89629364 C177.90174935 252.98165898 187.40581674 242.7920087 187.51464844 223.60498047 C187.24718951 212.29741117 182.46567535 204.26776564 174.79641724 196.15805054 C174.28020345 195.60596684 173.76398966 195.05388314 173.23213303 194.48506963 C165.98182635 186.78521322 158.48258083 179.32630768 151.00732422 171.84619141 C149.32703156 170.16125933 147.64693251 168.47613415 145.9670105 166.79083252 C141.44077005 162.25158559 136.91129889 157.71557673 132.38078451 153.18059587 C129.54526259 150.3421278 126.71030692 147.50309545 123.87555313 144.66386032 C116.00363871 136.77978168 108.13079826 128.89663036 100.25449944 121.01693153 C99.75300737 120.5152199 99.25151531 120.01350827 98.73482651 119.49659326 C98.23226725 118.99381572 97.72970799 118.49103818 97.21191967 117.97302496 C96.19384983 116.95451169 95.17578156 115.93599686 94.15771484 114.91748047 C93.65273823 114.41228242 93.14776161 113.90708437 92.62748267 113.38657729 C84.42996504 105.18510431 76.23923645 96.97688651 68.05137168 88.76577778 C59.61540261 80.30605615 51.17378074 71.85200953 42.72650921 63.40357339 C37.99538475 58.67153537 33.26683552 53.9369889 28.54421616 49.19646072 C24.10693739 44.74267805 19.66252207 40.29614187 15.21260452 35.8549881 C13.58548295 34.22863529 11.96090264 32.59973524 10.33912659 30.96805191 C-7.92150119 12.27644729 -7.92150119 12.27644729 -32.5625 5.5 C-46.87036461 6.01282669 -57.33756506 13.86512085 -67.07196045 23.6842804 Z " fill="#030300" transform="translate(288,30)"/>
</svg>
