<?xml version="1.0" encoding="UTF-8"?>
<svg version="1.1" xmlns="http://www.w3.org/2000/svg" width="640" height="640">
<path d="M0 0 C2.18136885 2.02312521 3.61446728 3.86201626 4.92602539 6.52734375 C5.27429382 7.22729462 5.62256226 7.92724548 5.98138428 8.64840698 C6.34975403 9.40380768 6.71812378 10.15920837 7.09765625 10.9375 C7.68320282 12.11906174 7.68320282 12.11906174 8.28057861 13.32449341 C9.11430415 15.00805322 9.94539128 16.69292173 10.77407837 18.37896729 C12.92573793 22.75608264 15.09646757 27.12372437 17.265625 31.4921875 C17.8969207 32.76532303 17.8969207 32.76532303 18.54096985 34.06417847 C21.38638962 39.79383057 24.2911049 45.48581111 27.3125 51.125 C30.11229635 56.3515752 32.82297903 61.6155829 35.4609375 66.92578125 C35.76776962 67.54298035 36.07460175 68.16017944 36.39073181 68.79608154 C37.90609443 71.84740581 39.41536738 74.90146823 40.91723633 77.95947266 C44.65201849 85.50681119 48.66094679 92.78409956 53 100 C59.33534864 87.97890487 65.57680913 75.91842689 71.625 63.75 C75.68272747 55.58677898 79.81538296 47.4772574 84.10620117 39.43432617 C86.68456274 34.57348059 89.17661345 29.67355753 91.625 24.74609375 C91.93981827 24.11292236 92.25463654 23.47975098 92.57899475 22.82739258 C94.14817482 19.6681531 95.71134704 16.50608923 97.26733398 13.34033203 C97.83782471 12.18774902 98.40831543 11.03516602 98.99609375 9.84765625 C99.50325928 8.81648682 100.0104248 7.78531738 100.53295898 6.72290039 C101.85140235 4.27580456 103.26333857 2.16315317 105 0 C111.0178098 11.24268466 116.82137355 22.58299454 122.5 34 C126.52218213 42.08612218 130.55436456 50.15960679 134.8125 58.125 C139.72652185 67.32391288 144.35220853 76.66483432 149 86 C155.86452195 99.81940911 155.86452195 99.81940911 163 113.5 C168.28233044 123.36663865 173.21942507 133.40673361 178.20703125 143.42431641 C184.48056706 156.02518178 184.48056706 156.02518178 191 168.5 C196.28233044 178.36663865 201.21942507 188.40673361 206.20703125 198.42431641 C212.48058256 211.02517364 212.48058256 211.02517364 219 223.5 C226.67518195 237.83731634 233.78195772 252.47999441 241.0231781 267.03962708 C242.34603628 269.69445634 243.67349541 272.34699082 245 275 C220.58 275 196.16 275 171 275 C161.8221384 258.9387422 161.8221384 258.9387422 158.4140625 251.98828125 C158.03081818 251.21622849 157.64757385 250.44417572 157.25271606 249.64872742 C156.44975291 248.03058871 155.64851738 246.41159158 154.84899902 244.79174805 C152.76025811 240.56093843 150.65758268 236.33706918 148.5546875 232.11328125 C148.14907593 231.29812042 147.74346436 230.48295959 147.32556152 229.64309692 C144.54021979 224.05565768 141.69591178 218.50474594 138.75 213 C134.16318855 204.42734467 129.84474831 195.72432156 125.51516724 187.02008057 C121.28403371 178.51766917 116.98139285 170.06187975 112.51806641 161.6784668 C107.84150207 152.87209078 103.42191769 143.93625489 99 135 C97.41524955 137.99925342 95.83246479 140.99954008 94.25 144 C93.8065625 144.83917969 93.363125 145.67835938 92.90625 146.54296875 C92.0226668 148.21917805 91.14567243 149.89887753 90.27539062 151.58203125 C89.45388835 153.13948885 88.60040731 154.68069799 87.70898438 156.19921875 C85.39146888 160.2473611 85.39146888 160.2473611 85.40625 164.80078125 C85.9321875 165.85652344 86.458125 166.91226563 87 168 C87.37769531 168.7945459 87.75539063 169.5890918 88.14453125 170.40771484 C89.55829202 173.35461368 91.02359288 176.27150389 92.5 179.1875 C93.03753906 180.25613281 93.57507813 181.32476562 94.12890625 182.42578125 C97.74269114 189.58500522 101.44464636 196.69323118 105.20898438 203.77416992 C109.11437189 211.1479948 112.82214709 218.61657731 116.53466797 226.08886719 C119.65420811 232.35199789 122.84333375 238.57037401 126.125 244.75 C129.70875973 251.50060052 133.20110006 258.29182695 136.625 265.125 C137.06344238 265.99737305 137.50188477 266.86974609 137.95361328 267.76855469 C138.35306152 268.56938477 138.75250977 269.37021484 139.1640625 270.1953125 C139.51936035 270.90703613 139.8746582 271.61875977 140.24072266 272.35205078 C141 274 141 274 141 275 C116.58 275 92.16 275 67 275 C62.49900096 265.99800192 62.49900096 265.99800192 61.26074219 262.81884766 C60.98075378 262.10516022 60.70076538 261.39147278 60.41229248 260.65615845 C60.12670471 259.91626678 59.84111694 259.17637512 59.546875 258.4140625 C59.24179016 257.63106781 58.93670532 256.84807312 58.62237549 256.04135132 C57.98530106 254.40346091 57.35012739 252.76483 56.71679688 251.12548828 C55.74375209 248.60884063 54.762908 246.09532994 53.78125 243.58203125 C53.16099472 241.98455493 52.54118669 240.38690487 51.921875 238.7890625 C51.48134796 237.66100693 51.48134796 237.66100693 51.03192139 236.51016235 C49 231.23030456 49 231.23030456 49 229 C48.34 229 47.68 229 47 229 C46.82744186 229.54559067 46.65488373 230.09118134 46.47709656 230.65330505 C44.66999888 236.23526541 42.56222223 241.60155627 40.20703125 246.97265625 C39.89552124 247.69094604 39.58401123 248.40923584 39.26306152 249.14929199 C38.11702999 251.78883617 36.9643958 254.4255097 35.8125 257.0625 C33.234375 262.981875 30.65625 268.90125 28 275 C7.21 275 -13.58 275 -35 275 C-29.4467613 263.27649607 -23.87965471 251.5900005 -18.0625 240 C-17.54467453 238.96567841 -17.54467453 238.96567841 -17.01638794 237.91046143 C-13.06710297 230.02368276 -9.0812983 222.16182475 -4.9375 214.375 C-3.28599892 211.25296443 -1.64189325 208.12709821 0 205 C0.45170563 204.14257202 0.45170563 204.14257202 0.91253662 203.26782227 C3.02748981 199.24934636 5.12003674 195.22015028 7.19137573 191.17901611 C7.89238828 189.81886302 8.59977548 188.46197493 9.31375122 187.10858154 C10.31487002 185.2082953 11.29248179 183.29754165 12.265625 181.3828125 C12.84086914 180.27309082 13.41611328 179.16336914 14.00878906 178.02001953 C15.26535815 175.10217966 15.26535815 175.10217966 14.36083984 172.48266602 C13.9117627 171.66338623 13.46268555 170.84410645 13 170 C12.53126465 169.03553955 12.0625293 168.0710791 11.57958984 167.07739258 C11.04543457 166.02704834 10.5112793 164.9767041 9.9609375 163.89453125 C9.38085938 162.74662109 8.80078125 161.59871094 8.203125 160.41601562 C7.28504131 158.60477471 6.36568361 156.79420205 5.44433594 154.98461914 C4.55057089 153.22718134 3.66192269 151.46714422 2.7734375 149.70703125 C2.24153809 148.6600708 1.70963867 147.61311035 1.16162109 146.53442383 C0 144 0 144 0 142 C-0.66 142 -1.32 142 -2 142 C-2.33064453 143.16789062 -2.33064453 143.16789062 -2.66796875 144.359375 C-4.45224145 149.23603823 -6.86921758 153.67517774 -9.3125 158.25 C-13.86311969 166.86273127 -18.29393635 175.52483331 -22.625 184.25 C-26.71093411 192.47121961 -30.87843818 200.6354025 -35.19189453 208.73925781 C-39.3261913 216.5423897 -43.23982123 224.45321535 -47.17041016 232.36035156 C-50.84654305 239.73872779 -54.60353179 247.06623809 -58.49023438 254.3359375 C-62.13170926 261.1645143 -65.53312189 268.06624378 -69 275 C-92.1 275 -115.2 275 -139 275 C-133.60629397 263.61328726 -128.21374004 252.25608944 -122.5625 241 C-122.23996246 240.35581116 -121.91742493 239.71162231 -121.58511353 239.0479126 C-117.50500673 230.90070053 -113.35152341 222.79924543 -109.05883789 214.76171875 C-104.54807439 206.2545048 -100.29132542 197.61919775 -96 189 C-91.06918599 179.09645538 -86.12831194 169.21109695 -80.90625 159.45703125 C-76.44094457 151.05441259 -72.24066951 142.51736412 -68 134 C-63.0691746 124.09646112 -58.1283121 114.21109724 -52.90625 104.45703125 C-48.44094457 96.05441259 -44.24066951 87.51736412 -40 79 C-30.40141232 59.72128325 -30.40141232 59.72128325 -26 51.5 C-18.6274222 37.72795123 -11.79257888 23.66858992 -4.83422852 9.68432617 C-3.22688526 6.45417989 -1.61465894 3.2264967 0 0 Z " fill="#486158" transform="translate(393,197)"/>
<path d="M0 0 C24.42 0 48.84 0 74 0 C83.1778616 16.0612578 83.1778616 16.0612578 86.5859375 23.01171875 C87.16080399 24.1697979 87.16080399 24.1697979 87.74728394 25.35127258 C88.55024709 26.96941129 89.35148262 28.58840842 90.15100098 30.20825195 C92.23974189 34.43906157 94.34241732 38.66293082 96.4453125 42.88671875 C96.85092407 43.70187958 97.25653564 44.51704041 97.67443848 45.35690308 C100.45978021 50.94434232 103.30408822 56.49525406 106.25 62 C110.83681145 70.57265533 115.15525169 79.27567844 119.48483276 87.97991943 C123.71596629 96.48233083 128.01860715 104.93812025 132.48193359 113.3215332 C137.15849793 122.12790922 141.57808231 131.06374511 146 140 C147.58475045 137.00074658 149.16753521 134.00045992 150.75 131 C151.1934375 130.16082031 151.636875 129.32164062 152.09375 128.45703125 C152.9773332 126.78082195 153.85432757 125.10112247 154.72460938 123.41796875 C155.54611165 121.86051115 156.39959269 120.31930201 157.29101562 118.80078125 C159.60853112 114.7526389 159.60853112 114.7526389 159.59375 110.19921875 C158.80484375 108.61560547 158.80484375 108.61560547 158 107 C157.62230469 106.2054541 157.24460938 105.4109082 156.85546875 104.59228516 C155.44170798 101.64538632 153.97640712 98.72849611 152.5 95.8125 C151.96246094 94.74386719 151.42492187 93.67523438 150.87109375 92.57421875 C147.25730886 85.41499478 143.55535364 78.30676882 139.79101562 71.22583008 C135.88562811 63.8520052 132.17785291 56.38342269 128.46533203 48.91113281 C125.34579189 42.64800211 122.15666625 36.42962599 118.875 30.25 C115.29124027 23.49939948 111.79889994 16.70817305 108.375 9.875 C107.71733643 8.56644043 107.71733643 8.56644043 107.04638672 7.23144531 C106.64693848 6.43061523 106.24749023 5.62978516 105.8359375 4.8046875 C105.30299072 3.73710205 105.30299072 3.73710205 104.75927734 2.64794922 C104 1 104 1 104 0 C128.42 0 152.84 0 178 0 C182.50099904 9.00199808 182.50099904 9.00199808 183.73925781 12.18115234 C184.01924622 12.89483978 184.29923462 13.60852722 184.58770752 14.34384155 C184.87329529 15.08373322 185.15888306 15.82362488 185.453125 16.5859375 C185.75820984 17.36893219 186.06329468 18.15192688 186.37762451 18.95864868 C187.01469894 20.59653909 187.64987261 22.23517 188.28320312 23.87451172 C189.25624791 26.39115937 190.237092 28.90467006 191.21875 31.41796875 C191.83900528 33.01544507 192.45881331 34.61309513 193.078125 36.2109375 C193.51865204 37.33899307 193.51865204 37.33899307 193.96807861 38.48983765 C196 43.76969544 196 43.76969544 196 46 C196.66 46 197.32 46 198 46 C198.17255814 45.45440933 198.34511627 44.90881866 198.52290344 44.34669495 C200.33000112 38.76473459 202.43777777 33.39844373 204.79296875 28.02734375 C205.10447876 27.30905396 205.41598877 26.59076416 205.73693848 25.85070801 C206.88297001 23.21116383 208.0356042 20.5744903 209.1875 17.9375 C211.765625 12.018125 214.34375 6.09875 217 0 C237.79 0 258.58 0 280 0 C274.4467613 11.72350393 268.87965471 23.4099995 263.0625 35 C262.54467453 36.03432159 262.54467453 36.03432159 262.01638794 37.08953857 C258.06710297 44.97631724 254.0812983 52.83817525 249.9375 60.625 C248.28599892 63.74703557 246.64189325 66.87290179 245 70 C244.69886292 70.57161865 244.39772583 71.1432373 244.08746338 71.73217773 C241.97251019 75.75065364 239.87996326 79.77984972 237.80862427 83.82098389 C237.10761172 85.18113698 236.40022452 86.53802507 235.68624878 87.89141846 C234.68512998 89.7917047 233.70751821 91.70245835 232.734375 93.6171875 C232.15913086 94.72690918 231.58388672 95.83663086 230.99121094 96.97998047 C229.73464185 99.89782034 229.73464185 99.89782034 230.63916016 102.51733398 C231.0882373 103.33661377 231.53731445 104.15589355 232 105 C232.46873535 105.96446045 232.9374707 106.9289209 233.42041016 107.92260742 C234.22164307 109.49812378 234.22164307 109.49812378 235.0390625 111.10546875 C235.61914062 112.25337891 236.19921875 113.40128906 236.796875 114.58398438 C237.71495869 116.39522529 238.63431639 118.20579795 239.55566406 120.01538086 C240.44942911 121.77281866 241.33807731 123.53285578 242.2265625 125.29296875 C242.75846191 126.3399292 243.29036133 127.38688965 243.83837891 128.46557617 C245 131 245 131 245 133 C245.66 133 246.32 133 247 133 C247.33064453 131.83210938 247.33064453 131.83210938 247.66796875 130.640625 C249.45224145 125.76396177 251.86921758 121.32482226 254.3125 116.75 C258.86311969 108.13726873 263.29393635 99.47516669 267.625 90.75 C271.71093411 82.52878039 275.87843818 74.3645975 280.19189453 66.26074219 C284.3261913 58.4576103 288.23982123 50.54678465 292.17041016 42.63964844 C295.84654305 35.26127221 299.60353179 27.93376191 303.49023438 20.6640625 C307.13170926 13.8354857 310.53312189 6.93375622 314 0 C337.1 0 360.2 0 384 0 C378.60629397 11.38671274 373.21374004 22.74391056 367.5625 34 C367.0786937 34.96628326 367.0786937 34.96628326 366.58511353 35.9520874 C362.50500673 44.09929947 358.35152341 52.20075457 354.05883789 60.23828125 C349.54807439 68.7454952 345.29132542 77.38080225 341 86 C336.06918599 95.90354462 331.12831194 105.78890305 325.90625 115.54296875 C321.44094457 123.94558741 317.24066951 132.48263588 313 141 C308.0691746 150.90353888 303.1283121 160.78890276 297.90625 170.54296875 C293.44094457 178.94558741 289.24066951 187.48263588 285 196 C280.07394685 205.89395384 275.14442366 215.77391784 269.91943359 225.5144043 C267.03270916 230.93915851 264.276136 236.42450635 261.5390625 241.92578125 C261.13774109 242.73195892 260.73641968 243.5381366 260.32293701 244.3687439 C258.28969674 248.45627466 256.26239985 252.5466404 254.2421875 256.640625 C253.48707648 258.1628087 252.73187205 259.68494606 251.9765625 261.20703125 C251.63525299 261.90315018 251.29394348 262.5992691 250.94229126 263.31648254 C248.8924387 267.43703907 246.63232461 271.22323429 244 275 C241.668399 271.50259849 239.85908577 267.82217335 238 264.0625 C237.1923375 262.43862138 236.38463751 260.81476141 235.5769043 259.19091797 C235.15597504 258.34285583 234.73504578 257.4947937 234.30136108 256.62103271 C225.62079115 239.12503454 225.62079115 239.12503454 216.58276367 221.81225586 C214.16156606 217.26862431 211.82956367 212.68498713 209.5390625 208.07421875 C209.23223038 207.45701965 208.92539825 206.83982056 208.60926819 206.20391846 C207.09390557 203.15259419 205.58463262 200.09853177 204.08276367 197.04052734 C200.34798151 189.49318881 196.33905321 182.21590044 192 175 C185.66465136 187.02109513 179.42319087 199.08157311 173.375 211.25 C169.31716449 219.41343836 165.18885672 227.52579257 160.89160156 235.56567383 C158.31261755 240.42081451 155.8370357 245.32117781 153.41015625 250.25390625 C152.94147881 251.20366333 152.94147881 251.20366333 152.46333313 252.17260742 C150.90564223 255.3301762 149.3563385 258.49138527 147.82055664 261.65966797 C146.96965454 263.38854248 146.96965454 263.38854248 146.1015625 265.15234375 C145.59963379 266.18351318 145.09770508 267.21468262 144.58056641 268.27709961 C142.99970236 271.00051276 141.32531442 272.89565017 139 275 C138.73485596 274.43941895 138.46971191 273.87883789 138.1965332 273.30126953 C128.89485226 253.66725047 119.3848659 234.13592627 109.15991211 214.96386719 C104.61916786 206.38720526 100.32491866 197.68673204 96 189 C89.13548155 175.18058906 89.13548155 175.18058906 82 161.5 C76.71766956 151.63336135 71.78057493 141.59326639 66.79296875 131.57568359 C60.51943294 118.97481822 60.51943294 118.97481822 54 106.5 C48.71766956 96.63336135 43.78057493 86.59326639 38.79296875 76.57568359 C32.51941744 63.97482636 32.51941744 63.97482636 26 51.5 C18.32481805 37.16268366 11.21804228 22.52000559 3.9768219 7.96037292 C2.65396372 5.30554366 1.32650459 2.65300918 0 0 Z " fill="#486158" transform="translate(2,198)"/>
</svg>
